<svg width="521" height="217" viewBox="0 0 521 217" fill="none" xmlns="http://www.w3.org/2000/svg">
<path d="M71.4007 123.91C62.8969 124.141 54.4563 122.387 46.749 118.786C39.0417 115.185 32.2798 109.838 27 103.168C21.7202 96.4974 18.0679 88.6883 16.3329 80.3602C14.598 72.0321 14.8283 63.4142 17.0054 55.1906C19.1825 46.9669 23.2465 39.364 28.8749 32.9852C34.5033 26.6065 41.5411 21.6275 49.4297 18.4435C57.3183 15.2595 65.8405 13.9581 74.3198 14.6427C82.7991 15.3272 91.0022 17.9789 98.2778 22.3872L91.0057 34.3893C85.5955 31.1113 79.4958 29.1395 73.1905 28.6305C66.8853 28.1214 60.5481 29.0891 54.6822 31.4568C48.8162 33.8244 43.5829 37.5268 39.3976 42.2701C35.2123 47.0133 32.1903 52.6669 30.5714 58.782C28.9525 64.8971 28.7812 71.3054 30.0713 77.4982C31.3614 83.691 34.0773 89.4979 38.0034 94.4578C41.9294 99.4178 46.9576 103.394 52.6888 106.072C58.42 108.749 64.6964 110.054 71.0198 109.882L71.4007 123.91Z" stroke="#F15152" stroke-width="28.6184" stroke-linejoin="round"/>
<path d="M64.4342 92.3594C73.3553 92.7471 82.0461 95.3116 89.7484 99.8293C97.4508 104.347 103.931 110.681 108.623 118.278C113.316 125.875 116.079 134.505 116.67 143.415C117.262 152.324 115.664 161.244 112.017 169.395C108.37 177.545 102.784 184.68 95.7469 190.176C88.7094 195.673 80.434 199.364 71.6425 200.927C62.851 202.491 53.8104 201.88 45.3092 199.148C36.808 196.415 29.1045 191.644 22.8706 185.251L32.9181 175.454C37.5536 180.208 43.282 183.756 49.6035 185.787C55.925 187.819 62.6476 188.274 69.185 187.111C75.7224 185.948 81.876 183.203 87.1091 179.116C92.3422 175.029 96.4959 169.724 99.2078 163.663C101.92 157.602 103.108 150.97 102.668 144.344C102.228 137.719 100.174 131.302 96.6841 125.652C93.1947 120.003 88.3761 115.294 82.6486 111.934C76.9211 108.575 70.4586 106.668 63.8249 106.379L64.4342 92.3594Z" stroke="#1C0F13" stroke-width="28.6184" stroke-linejoin="round"/>
<path d="M176.395 152.348C157.41 152.348 145.281 140.16 145.281 119.535C145.281 99.2031 157.586 86.8398 176.395 86.8398C195.203 86.8398 207.508 99.1445 207.508 119.535C207.508 140.219 195.379 152.348 176.395 152.348ZM176.395 139.281C184.773 139.281 190.105 132.191 190.105 119.594C190.105 107.113 184.715 99.9062 176.395 99.9062C168.074 99.9062 162.625 107.113 162.625 119.594C162.625 132.191 167.957 139.281 176.395 139.281ZM245.008 152.348C226.082 152.348 214.07 139.926 214.07 119.594C214.07 99.4961 226.023 86.8398 244.891 86.8398C257.488 86.8398 267.977 92.9336 271.375 101.84C271.961 103.305 272.312 104.828 272.312 106.059C272.312 110.277 269.031 112.738 264.988 112.738C261.59 112.738 259.539 111.391 257.781 108.285C254.676 102.777 250.867 100.258 245.418 100.258C236.746 100.258 231.414 107.406 231.414 119.535C231.414 131.898 236.746 138.93 245.301 138.93C251.277 138.93 254.969 136 257.605 131.547C259.891 127.973 261.766 126.508 265.398 126.508C269.383 126.508 272.605 129.145 272.605 133.363C272.605 134.711 272.254 136.117 271.492 137.816C267.742 146.371 257.02 152.348 245.008 152.348ZM310.398 152.348C291.473 152.348 279.461 139.926 279.461 119.594C279.461 99.4961 291.414 86.8398 310.281 86.8398C322.879 86.8398 333.367 92.9336 336.766 101.84C337.352 103.305 337.703 104.828 337.703 106.059C337.703 110.277 334.422 112.738 330.379 112.738C326.98 112.738 324.93 111.391 323.172 108.285C320.066 102.777 316.258 100.258 310.809 100.258C302.137 100.258 296.805 107.406 296.805 119.535C296.805 131.898 302.137 138.93 310.691 138.93C316.668 138.93 320.359 136 322.996 131.547C325.281 127.973 327.156 126.508 330.789 126.508C334.773 126.508 337.996 129.145 337.996 133.363C337.996 134.711 337.645 136.117 336.883 137.816C333.133 146.371 322.41 152.348 310.398 152.348ZM376.023 152.348C356.395 152.348 344.852 140.219 344.852 119.887C344.852 99.6719 356.629 86.8398 375.203 86.8398C393.016 86.8398 404.969 99.0273 404.969 116.078C404.969 120.824 402.273 123.52 397.527 123.52H361.668V124.281C361.668 133.598 367.293 139.691 375.965 139.691C382.234 139.691 386.336 137.582 390.965 132.133C392.781 130.258 394.305 129.613 396.531 129.613C400.223 129.613 403.211 131.957 403.211 135.883C403.211 137.23 402.801 138.637 402.039 140.043C397.879 147.777 388.152 152.348 376.023 152.348ZM361.844 113.031H388.504C388.152 104.828 382.879 99.4961 375.379 99.4961C367.879 99.4961 362.43 105.004 361.844 113.031ZM422.371 152.23C417.391 152.23 413.816 149.184 413.816 143.324V95.5117C413.816 90.1797 416.922 86.8984 422.078 86.8984C427.234 86.8984 430.633 90.1797 430.633 95.5703V99.0859H430.984C434.324 91.293 440.652 87.0156 450.32 87.0156C464.266 87.0156 472.117 95.8047 472.117 110.512V143.324C472.117 149.184 468.543 152.23 463.562 152.23C458.523 152.23 455.008 149.184 455.008 143.324V114.086C455.008 105.883 451.141 101.195 443.465 101.195C435.789 101.195 430.926 106.82 430.926 114.965V143.324C430.926 149.184 427.41 152.23 422.371 152.23ZM487.527 134.945V101.078H484.246C480.203 101.078 477.625 98.6172 477.625 94.6328C477.625 90.6484 480.203 88.1875 484.246 88.1875H487.527V81.2148C487.527 75.707 490.75 72.3086 496.082 72.3086C501.414 72.3086 504.637 75.707 504.637 81.2148V88.1875H510.672C514.715 88.1875 517.234 90.707 517.234 94.6328C517.234 98.5586 514.715 101.078 510.672 101.078H504.637V131.137C504.637 135.59 506.16 137.465 509.852 137.758L510.965 137.875C515.184 138.344 517.469 140.102 517.469 144.086C517.469 149.125 512.547 151.703 505.34 151.703H504.754C493.328 151.703 487.527 146.02 487.527 134.945Z" fill="#1C0F13"/>
</svg>
